<mxfile host="app.diagrams.net" modified="2024-04-26T08:53:13.359Z" agent="Mozilla/5.0 (Windows NT 10.0; Win64; x64) AppleWebKit/537.36 (KHTML, like Gecko) Chrome/124.0.0.0 Safari/537.36" etag="R0j-oekFN8oycLRlJttl" version="24.3.0" type="github">
  <diagram name="Page-1" id="1Dvkutj9wqZVP7vQXgIb">
    <mxGraphModel dx="2074" dy="1140" grid="1" gridSize="10" guides="1" tooltips="1" connect="1" arrows="1" fold="1" page="1" pageScale="1" pageWidth="850" pageHeight="1100" math="0" shadow="0">
      <root>
        <mxCell id="0" />
        <mxCell id="1" parent="0" />
        <mxCell id="FcrFrRqbFrsatVIIR7yG-1" value="" style="endArrow=none;dashed=1;html=1;rounded=0;" parent="1" edge="1">
          <mxGeometry width="50" height="50" relative="1" as="geometry">
            <mxPoint y="120" as="sourcePoint" />
            <mxPoint x="520" y="120" as="targetPoint" />
          </mxGeometry>
        </mxCell>
        <mxCell id="FcrFrRqbFrsatVIIR7yG-2" value="&lt;font style=&quot;font-size: 20px;&quot;&gt;DRAM&lt;/font&gt;" style="rounded=0;whiteSpace=wrap;html=1;fillColor=none;strokeColor=none;" parent="1" vertex="1">
          <mxGeometry y="80" width="80" height="40" as="geometry" />
        </mxCell>
        <mxCell id="FcrFrRqbFrsatVIIR7yG-3" value="&lt;font style=&quot;font-size: 20px;&quot;&gt;PMEM&lt;/font&gt;" style="rounded=0;whiteSpace=wrap;html=1;fillColor=none;strokeColor=none;" parent="1" vertex="1">
          <mxGeometry y="120" width="80" height="40" as="geometry" />
        </mxCell>
        <mxCell id="FcrFrRqbFrsatVIIR7yG-4" value="0" style="rounded=0;whiteSpace=wrap;html=1;fillColor=none;" parent="1" vertex="1">
          <mxGeometry x="150" y="35" width="20" height="20" as="geometry" />
        </mxCell>
        <mxCell id="FcrFrRqbFrsatVIIR7yG-5" value="1" style="rounded=0;whiteSpace=wrap;html=1;fillColor=none;" parent="1" vertex="1">
          <mxGeometry x="170" y="35" width="20" height="20" as="geometry" />
        </mxCell>
        <mxCell id="FcrFrRqbFrsatVIIR7yG-6" value="2" style="rounded=0;whiteSpace=wrap;html=1;fillColor=none;" parent="1" vertex="1">
          <mxGeometry x="190" y="35" width="20" height="20" as="geometry" />
        </mxCell>
        <mxCell id="FcrFrRqbFrsatVIIR7yG-7" value="3" style="rounded=0;whiteSpace=wrap;html=1;fillColor=none;" parent="1" vertex="1">
          <mxGeometry x="210" y="35" width="20" height="20" as="geometry" />
        </mxCell>
        <mxCell id="FcrFrRqbFrsatVIIR7yG-8" value="4" style="rounded=0;whiteSpace=wrap;html=1;fillColor=none;" parent="1" vertex="1">
          <mxGeometry x="230" y="35" width="20" height="20" as="geometry" />
        </mxCell>
        <mxCell id="FcrFrRqbFrsatVIIR7yG-9" value="..." style="rounded=0;whiteSpace=wrap;html=1;fillColor=none;" parent="1" vertex="1">
          <mxGeometry x="250" y="35" width="30" height="20" as="geometry" />
        </mxCell>
        <mxCell id="FcrFrRqbFrsatVIIR7yG-10" value="" style="rounded=0;whiteSpace=wrap;html=1;fillColor=none;" parent="1" vertex="1">
          <mxGeometry x="150" y="55" width="20" height="40" as="geometry" />
        </mxCell>
        <mxCell id="FcrFrRqbFrsatVIIR7yG-11" value="" style="rounded=0;whiteSpace=wrap;html=1;fillColor=none;" parent="1" vertex="1">
          <mxGeometry x="170" y="55" width="20" height="40" as="geometry" />
        </mxCell>
        <mxCell id="FcrFrRqbFrsatVIIR7yG-12" value="" style="rounded=0;whiteSpace=wrap;html=1;fillColor=#666666;" parent="1" vertex="1">
          <mxGeometry x="190" y="55" width="20" height="40" as="geometry" />
        </mxCell>
        <mxCell id="FcrFrRqbFrsatVIIR7yG-13" value="" style="rounded=0;whiteSpace=wrap;html=1;fillColor=none;" parent="1" vertex="1">
          <mxGeometry x="210" y="55" width="20" height="40" as="geometry" />
        </mxCell>
        <mxCell id="FcrFrRqbFrsatVIIR7yG-14" value="" style="rounded=0;whiteSpace=wrap;html=1;fillColor=none;" parent="1" vertex="1">
          <mxGeometry x="230" y="55" width="20" height="40" as="geometry" />
        </mxCell>
        <mxCell id="FcrFrRqbFrsatVIIR7yG-15" value="" style="rounded=0;whiteSpace=wrap;html=1;fillColor=none;" parent="1" vertex="1">
          <mxGeometry x="250" y="55" width="30" height="40" as="geometry" />
        </mxCell>
        <mxCell id="FcrFrRqbFrsatVIIR7yG-16" value="" style="rounded=0;whiteSpace=wrap;html=1;fillColor=#CCCCCC;" parent="1" vertex="1">
          <mxGeometry x="120" y="170" width="60" height="20" as="geometry" />
        </mxCell>
        <mxCell id="FcrFrRqbFrsatVIIR7yG-18" value="" style="rounded=0;whiteSpace=wrap;html=1;fillColor=#000000;" parent="1" vertex="1">
          <mxGeometry x="240" y="170" width="60" height="20" as="geometry" />
        </mxCell>
        <mxCell id="FcrFrRqbFrsatVIIR7yG-19" value="" style="rounded=0;whiteSpace=wrap;html=1;" parent="1" vertex="1">
          <mxGeometry x="300" y="170" width="200" height="20" as="geometry" />
        </mxCell>
        <mxCell id="FcrFrRqbFrsatVIIR7yG-22" value="&lt;font style=&quot;font-size: 15px;&quot;&gt;Sub inode log&lt;/font&gt;&lt;div&gt;&lt;font style=&quot;font-size: 15px;&quot;&gt;(4 KiB)&lt;/font&gt;&lt;/div&gt;" style="rounded=0;whiteSpace=wrap;html=1;fillColor=none;strokeColor=none;" parent="1" vertex="1">
          <mxGeometry y="157.5" width="120" height="45" as="geometry" />
        </mxCell>
        <mxCell id="FcrFrRqbFrsatVIIR7yG-23" value="&lt;font style=&quot;font-size: 12px;&quot;&gt;old tail&lt;/font&gt;" style="rounded=0;whiteSpace=wrap;html=1;fillColor=none;strokeColor=none;" parent="1" vertex="1">
          <mxGeometry x="220" y="130" width="40" height="20" as="geometry" />
        </mxCell>
        <mxCell id="a1dksQierBHJueGm9jTr-5" style="edgeStyle=orthogonalEdgeStyle;rounded=0;orthogonalLoop=1;jettySize=auto;html=1;exitX=0.5;exitY=1;exitDx=0;exitDy=0;entryX=1;entryY=0;entryDx=0;entryDy=0;" edge="1" parent="1" target="FcrFrRqbFrsatVIIR7yG-18">
          <mxGeometry relative="1" as="geometry">
            <mxPoint x="300" y="150" as="sourcePoint" />
          </mxGeometry>
        </mxCell>
        <mxCell id="FcrFrRqbFrsatVIIR7yG-24" value="&lt;font style=&quot;font-size: 12px;&quot;&gt;new tail&lt;/font&gt;" style="rounded=0;whiteSpace=wrap;html=1;fillColor=none;strokeColor=none;" parent="1" vertex="1">
          <mxGeometry x="274" y="130" width="50" height="20" as="geometry" />
        </mxCell>
        <mxCell id="FcrFrRqbFrsatVIIR7yG-34" value="&lt;font style=&quot;font-size: 18px;&quot;&gt;Block map&lt;/font&gt;" style="rounded=0;whiteSpace=wrap;html=1;fillColor=none;strokeColor=none;" parent="1" vertex="1">
          <mxGeometry x="150" width="130" height="35" as="geometry" />
        </mxCell>
        <mxCell id="FcrFrRqbFrsatVIIR7yG-35" value="&lt;font style=&quot;font-size: 15px;&quot;&gt;Data blocks&lt;/font&gt;&lt;div&gt;&lt;font style=&quot;font-size: 15px;&quot;&gt;(2 MiB)&lt;/font&gt;&lt;/div&gt;" style="rounded=0;whiteSpace=wrap;html=1;fillColor=none;strokeColor=none;" parent="1" vertex="1">
          <mxGeometry y="220" width="90" height="40" as="geometry" />
        </mxCell>
        <mxCell id="7bWyixLGcGMEeV_3WNz_-1" value="&lt;font color=&quot;#ffffff&quot;&gt;1&lt;/font&gt;" style="ellipse;whiteSpace=wrap;html=1;aspect=fixed;fillColor=#000000;" parent="1" vertex="1">
          <mxGeometry x="205" y="98" width="20" height="20" as="geometry" />
        </mxCell>
        <mxCell id="7bWyixLGcGMEeV_3WNz_-2" value="&lt;font color=&quot;#ffffff&quot;&gt;2&lt;/font&gt;" style="ellipse;whiteSpace=wrap;html=1;aspect=fixed;fillColor=#000000;" parent="1" vertex="1">
          <mxGeometry x="328.5" y="230" width="20" height="20" as="geometry" />
        </mxCell>
        <mxCell id="7bWyixLGcGMEeV_3WNz_-3" value="&lt;font color=&quot;#ffffff&quot;&gt;4&lt;/font&gt;" style="ellipse;whiteSpace=wrap;html=1;aspect=fixed;fillColor=#000000;" parent="1" vertex="1">
          <mxGeometry x="315" y="145" width="20" height="20" as="geometry" />
        </mxCell>
        <mxCell id="jlncPJkVaWCYWcdui12d-1" value="&lt;font style=&quot;font-size: 12px;&quot;&gt;&lt;b&gt;locate sub inode log in PMEM&lt;/b&gt;&lt;/font&gt;" style="rounded=0;whiteSpace=wrap;html=1;fillColor=none;strokeColor=none;" parent="1" vertex="1">
          <mxGeometry x="225" y="99" width="180" height="18" as="geometry" />
        </mxCell>
        <mxCell id="jlncPJkVaWCYWcdui12d-5" value="&lt;b&gt;atomic update log tail&lt;/b&gt;" style="rounded=0;whiteSpace=wrap;html=1;fillColor=none;strokeColor=none;" parent="1" vertex="1">
          <mxGeometry x="335" y="146" width="130" height="18" as="geometry" />
        </mxCell>
        <mxCell id="jlncPJkVaWCYWcdui12d-6" value="&lt;b&gt;allocate a new block,&lt;/b&gt;&lt;div&gt;&lt;b&gt;and write data&lt;/b&gt;&lt;/div&gt;" style="rounded=0;whiteSpace=wrap;html=1;fillColor=none;strokeColor=none;" parent="1" vertex="1">
          <mxGeometry x="351.5" y="231" width="128.5" height="18" as="geometry" />
        </mxCell>
        <mxCell id="a1dksQierBHJueGm9jTr-2" value="" style="rounded=0;whiteSpace=wrap;html=1;fillColor=#CCCCCC;" vertex="1" parent="1">
          <mxGeometry x="180" y="170" width="60" height="20" as="geometry" />
        </mxCell>
        <mxCell id="a1dksQierBHJueGm9jTr-4" value="" style="endArrow=classic;html=1;rounded=0;exitX=0.5;exitY=1;exitDx=0;exitDy=0;entryX=0;entryY=0;entryDx=0;entryDy=0;" edge="1" parent="1" target="FcrFrRqbFrsatVIIR7yG-18">
          <mxGeometry width="50" height="50" relative="1" as="geometry">
            <mxPoint x="240" y="150" as="sourcePoint" />
            <mxPoint x="445" y="520" as="targetPoint" />
          </mxGeometry>
        </mxCell>
        <mxCell id="a1dksQierBHJueGm9jTr-9" value="" style="endArrow=classic;html=1;rounded=0;entryX=0;entryY=0;entryDx=0;entryDy=0;" edge="1" parent="1" target="FcrFrRqbFrsatVIIR7yG-16">
          <mxGeometry width="50" height="50" relative="1" as="geometry">
            <mxPoint x="120" y="140" as="sourcePoint" />
            <mxPoint x="200" y="360" as="targetPoint" />
          </mxGeometry>
        </mxCell>
        <mxCell id="a1dksQierBHJueGm9jTr-10" value="" style="endArrow=none;html=1;rounded=0;" edge="1" parent="1">
          <mxGeometry width="50" height="50" relative="1" as="geometry">
            <mxPoint x="120" y="140" as="sourcePoint" />
            <mxPoint x="200" y="140" as="targetPoint" />
          </mxGeometry>
        </mxCell>
        <mxCell id="a1dksQierBHJueGm9jTr-11" value="" style="endArrow=none;html=1;rounded=0;exitX=0.5;exitY=1;exitDx=0;exitDy=0;" edge="1" parent="1" source="FcrFrRqbFrsatVIIR7yG-12">
          <mxGeometry width="50" height="50" relative="1" as="geometry">
            <mxPoint x="400" y="470" as="sourcePoint" />
            <mxPoint x="200" y="140" as="targetPoint" />
          </mxGeometry>
        </mxCell>
        <mxCell id="a1dksQierBHJueGm9jTr-12" value="" style="whiteSpace=wrap;html=1;fillColor=#000000;fillStyle=hatch;" vertex="1" parent="1">
          <mxGeometry x="240" y="220" width="60" height="40" as="geometry" />
        </mxCell>
        <mxCell id="a1dksQierBHJueGm9jTr-13" value="" style="whiteSpace=wrap;html=1;fillColor=#000000;fillStyle=cross-hatch;" vertex="1" parent="1">
          <mxGeometry x="300" y="220" width="20" height="40" as="geometry" />
        </mxCell>
        <mxCell id="a1dksQierBHJueGm9jTr-14" value="" style="whiteSpace=wrap;html=1;fillColor=none;fillStyle=auto;" vertex="1" parent="1">
          <mxGeometry x="120" y="220" width="60" height="40" as="geometry" />
        </mxCell>
        <mxCell id="a1dksQierBHJueGm9jTr-15" value="" style="whiteSpace=wrap;html=1;fillColor=#000000;fillStyle=cross-hatch;" vertex="1" parent="1">
          <mxGeometry x="180" y="220" width="20" height="40" as="geometry" />
        </mxCell>
        <mxCell id="a1dksQierBHJueGm9jTr-16" value="" style="endArrow=none;html=1;rounded=0;" edge="1" parent="1">
          <mxGeometry width="50" height="50" relative="1" as="geometry">
            <mxPoint x="160" y="200" as="sourcePoint" />
            <mxPoint x="210" y="200" as="targetPoint" />
          </mxGeometry>
        </mxCell>
        <mxCell id="a1dksQierBHJueGm9jTr-18" value="" style="rounded=0;whiteSpace=wrap;html=1;fillColor=none;strokeColor=none;" vertex="1" parent="1">
          <mxGeometry x="120" y="220" width="80" height="40" as="geometry" />
        </mxCell>
        <mxCell id="a1dksQierBHJueGm9jTr-19" value="" style="endArrow=classic;html=1;rounded=0;entryX=0.5;entryY=0;entryDx=0;entryDy=0;" edge="1" parent="1" target="a1dksQierBHJueGm9jTr-18">
          <mxGeometry width="50" height="50" relative="1" as="geometry">
            <mxPoint x="160" y="200" as="sourcePoint" />
            <mxPoint x="450" y="420" as="targetPoint" />
          </mxGeometry>
        </mxCell>
        <mxCell id="a1dksQierBHJueGm9jTr-20" value="" style="endArrow=none;html=1;rounded=0;entryX=0.5;entryY=1;entryDx=0;entryDy=0;" edge="1" parent="1" target="a1dksQierBHJueGm9jTr-2">
          <mxGeometry width="50" height="50" relative="1" as="geometry">
            <mxPoint x="210" y="200" as="sourcePoint" />
            <mxPoint x="450" y="420" as="targetPoint" />
          </mxGeometry>
        </mxCell>
        <mxCell id="a1dksQierBHJueGm9jTr-22" value="" style="rounded=0;whiteSpace=wrap;html=1;fillColor=none;strokeColor=none;" vertex="1" parent="1">
          <mxGeometry x="240" y="220" width="80" height="40" as="geometry" />
        </mxCell>
        <mxCell id="a1dksQierBHJueGm9jTr-23" value="" style="endArrow=classic;html=1;rounded=0;exitX=0.5;exitY=1;exitDx=0;exitDy=0;entryX=0.375;entryY=0;entryDx=0;entryDy=0;entryPerimeter=0;" edge="1" parent="1" source="FcrFrRqbFrsatVIIR7yG-18" target="a1dksQierBHJueGm9jTr-22">
          <mxGeometry width="50" height="50" relative="1" as="geometry">
            <mxPoint x="400" y="470" as="sourcePoint" />
            <mxPoint x="450" y="420" as="targetPoint" />
          </mxGeometry>
        </mxCell>
        <mxCell id="a1dksQierBHJueGm9jTr-24" value="" style="rounded=0;whiteSpace=wrap;html=1;fillColor=none;dashed=1;dashPattern=8 8;" vertex="1" parent="1">
          <mxGeometry x="235" y="215" width="90" height="50" as="geometry" />
        </mxCell>
        <mxCell id="a1dksQierBHJueGm9jTr-25" value="" style="endArrow=none;html=1;rounded=0;" edge="1" parent="1">
          <mxGeometry width="50" height="50" relative="1" as="geometry">
            <mxPoint x="191" y="260" as="sourcePoint" />
            <mxPoint x="191" y="280" as="targetPoint" />
          </mxGeometry>
        </mxCell>
        <mxCell id="a1dksQierBHJueGm9jTr-26" value="" style="endArrow=none;html=1;rounded=0;" edge="1" parent="1">
          <mxGeometry width="50" height="50" relative="1" as="geometry">
            <mxPoint x="191" y="280" as="sourcePoint" />
            <mxPoint x="310" y="280" as="targetPoint" />
          </mxGeometry>
        </mxCell>
        <mxCell id="a1dksQierBHJueGm9jTr-27" value="" style="endArrow=classic;html=1;rounded=0;entryX=0.833;entryY=0.9;entryDx=0;entryDy=0;entryPerimeter=0;" edge="1" parent="1" target="a1dksQierBHJueGm9jTr-24">
          <mxGeometry width="50" height="50" relative="1" as="geometry">
            <mxPoint x="310" y="280" as="sourcePoint" />
            <mxPoint x="450" y="420" as="targetPoint" />
          </mxGeometry>
        </mxCell>
        <mxCell id="a1dksQierBHJueGm9jTr-28" value="&lt;font color=&quot;#ffffff&quot;&gt;3&lt;/font&gt;" style="ellipse;whiteSpace=wrap;html=1;aspect=fixed;fillColor=#000000;" vertex="1" parent="1">
          <mxGeometry x="200" y="285" width="20" height="20" as="geometry" />
        </mxCell>
        <mxCell id="a1dksQierBHJueGm9jTr-29" value="&lt;b&gt;copy old data&lt;/b&gt;" style="rounded=0;whiteSpace=wrap;html=1;fillColor=none;strokeColor=none;" vertex="1" parent="1">
          <mxGeometry x="225" y="287" width="85" height="18" as="geometry" />
        </mxCell>
        <mxCell id="a1dksQierBHJueGm9jTr-30" value="" style="rounded=0;whiteSpace=wrap;html=1;fillColor=none;dashed=1;dashPattern=8 8;" vertex="1" parent="1">
          <mxGeometry x="115" y="215" width="90" height="50" as="geometry" />
        </mxCell>
        <mxCell id="a1dksQierBHJueGm9jTr-31" value="&lt;font color=&quot;#ffffff&quot;&gt;5&lt;/font&gt;" style="ellipse;whiteSpace=wrap;html=1;aspect=fixed;fillColor=#000000;" vertex="1" parent="1">
          <mxGeometry x="53" y="264" width="20" height="20" as="geometry" />
        </mxCell>
        <mxCell id="a1dksQierBHJueGm9jTr-32" value="&lt;b&gt;reclaim old block&lt;/b&gt;" style="rounded=0;whiteSpace=wrap;html=1;fillColor=none;strokeColor=none;rotation=0;" vertex="1" parent="1">
          <mxGeometry x="70" y="265" width="110" height="18" as="geometry" />
        </mxCell>
        <mxCell id="a1dksQierBHJueGm9jTr-35" value="" style="rounded=0;whiteSpace=wrap;html=1;fillColor=#CCCCCC;" vertex="1" parent="1">
          <mxGeometry x="360" y="20" width="60" height="20" as="geometry" />
        </mxCell>
        <mxCell id="a1dksQierBHJueGm9jTr-36" value="" style="rounded=0;whiteSpace=wrap;html=1;fillColor=#000000;" vertex="1" parent="1">
          <mxGeometry x="360" y="50" width="60" height="20" as="geometry" />
        </mxCell>
        <mxCell id="a1dksQierBHJueGm9jTr-37" value="&lt;font style=&quot;font-size: 12px;&quot;&gt;old log entry&lt;/font&gt;" style="rounded=0;whiteSpace=wrap;html=1;fillColor=none;strokeColor=none;" vertex="1" parent="1">
          <mxGeometry x="430" y="20" width="70" height="20" as="geometry" />
        </mxCell>
        <mxCell id="a1dksQierBHJueGm9jTr-38" value="&lt;font style=&quot;font-size: 12px;&quot;&gt;current log entry&lt;/font&gt;" style="rounded=0;whiteSpace=wrap;html=1;fillColor=none;strokeColor=none;" vertex="1" parent="1">
          <mxGeometry x="430" y="50" width="90" height="20" as="geometry" />
        </mxCell>
      </root>
    </mxGraphModel>
  </diagram>
</mxfile>
